Coordinates
nRows=165
nColumns=2
inDegrees=yes
endheader
time	ankle_angle_r	
1.93738	 -4.669089	
1.99987	 -4.686330	
2.06237	 -4.746484	
2.12486	 -4.784444	
2.18736	 -4.729849	
2.24986	 -4.686291	
2.31235	 -4.701478	
2.37485	 -4.699307	
2.43734	 -4.683110	
2.49984	 -4.627886	
2.56234	 -4.545079	
2.62483	 -4.532282	
2.68733	 -4.552657	
2.74982	 -4.584200	
2.81232	 -4.634647	
2.87482	 -4.638023	
2.93731	 -4.641571	
2.99981	 -4.636427	
3.0623	 -4.569413	
3.1248	 -4.550094	
3.1873	 -4.581380	
3.24979	 -4.607004	
3.31229	 -4.660308	
3.37478	 -4.707125	
3.43728	 -4.722370	
3.49978	 -4.716258	
3.56227	 -4.691795	
3.62477	 -4.706264	
3.68726	 -4.751866	
3.74976	 -4.754663	
3.81226	 -4.752031	
3.87475	 -4.784153	
3.93725	 -4.813769	
3.99974	 -4.838806	
4.06224	 -4.829174	
4.12474	 -4.784307	
4.18723	 -4.763658	
4.24973	 -4.745171	
4.31222	 -4.755251	
4.37472	 -4.799311	
4.43722	 -4.792971	
4.49971	 -4.753400	
4.56221	 -4.680315	
4.6247	 -4.602313	
4.6872	 -4.585039	
4.7497	 -4.557824	
4.81219	 -4.557504	
4.87469	 -4.629494	
4.93718	 -4.656348	
4.99968	 -4.651509	
5.06218	 -4.629456	
5.12467	 -4.560958	
5.18717	 -4.544193	
5.24966	 -4.567492	
5.31216	 -4.594545	
5.37466	 -4.648449	
5.43715	 -4.652972	
5.49965	 -4.629060	
5.56214	 -4.622007	
5.62464	 -4.578379	
5.68714	 -4.554798	
5.74963	 -4.604213	
5.81213	 -4.673686	
5.87462	 -4.730848	
5.93712	 -4.752738	
5.99962	 -4.752515	
6.06211	 -4.768613	
6.12461	 -4.776740	
6.1871	 -4.777107	
6.2496	 -4.773659	
6.3121	 -4.755588	
6.37459	 -4.789982	
6.43709	 -4.828126	
6.49958	 -4.787895	
6.56208	 -4.770808	
6.62458	 -4.781619	
6.68707	 -4.746438	
6.74957	 -4.708703	
6.81206	 -4.703427	
6.87456	 -4.734440	
6.93706	 -4.768338	
6.99955	 -4.785294	
7.06205	 -4.815323	
7.12454	 -4.817210	
7.18704	 -4.794554	
7.24954	 -4.784755	
7.31203	 -4.746397	
7.37453	 -4.737225	
7.43702	 -4.760789	
7.49952	 -4.712454	
7.56202	 -4.661211	
7.62451	 -4.627178	
7.68701	 -4.571222	
7.7495	 -4.575662	
7.812	 -4.596370	
7.8745	 -4.596111	
7.93699	 -4.631160	
7.99949	 -4.644776	
8.06198	 -4.632557	
8.12448	 -4.617380	
8.18698	 -4.570755	
8.24947	 -4.550885	
8.31197	 -4.567484	
8.37446	 -4.591221	
8.43696	 -4.629705	
8.49946	 -4.627237	
8.56195	 -4.628287	
8.62445	 -4.679183	
8.68694	 -4.670475	
8.74944	 -4.642472	
8.81194	 -4.657981	
8.87443	 -4.667880	
8.93693	 -4.708214	
8.99942	 -4.743988	
9.06192	 -4.746195	
9.12442	 -4.777012	
9.18691	 -4.774620	
9.24941	 -4.732556	
9.3119	 -4.723843	
9.3744	 -4.720610	
9.4369	 -4.743568	
9.49939	 -4.805156	
9.56189	 -4.838359	
9.62438	 -4.805558	
9.68688	 -4.697352	
9.74938	 -4.613006	
9.81187	 -4.600383	
9.87437	 -4.571328	
9.93686	 -4.574633	
9.99936	 -4.629182	
10.0619	 -4.642957	
10.1244	 -4.642624	
10.1868	 -4.615455	
10.2493	 -4.560501	
10.3118	 -4.564753	
10.3743	 -4.574326	
10.4368	 -4.582663	
10.4993	 -4.635619	
10.5618	 -4.656100	
10.6243	 -4.646241	
10.6868	 -4.616219	
10.7493	 -4.571562	
10.8118	 -4.584168	
10.8743	 -4.590406	
10.9368	 -4.571046	
10.9993	 -4.609034	
11.0618	 -4.658104	
11.1243	 -4.675395	
11.1868	 -4.659846	
11.2493	 -4.644884	
11.3118	 -4.708330	
11.3743	 -4.754688	
11.4368	 -4.712850	
11.4993	 -4.722756	
11.5618	 -4.772815	
11.6243	 -4.785018	
11.6868	 -4.836425	
11.7492	 -4.876751	
11.8117	 -4.835995	
11.8742	 -4.807851	
11.9367	 -4.815776	
11.9992	 -4.828423	
12.0617	 -4.837568	
12.1242	 -4.833306	
12.1867	 -4.837177	
